<svg height="392" width="487" enable-background="new 0 0 1776.5 1386.5" viewBox="0 0 1776.5 1386.5" xmlns="http://www.w3.org/2000/svg">
													<g class="pam">
														<path d="m421.5 557.7c18 0-32.5 43.3-47.5 93.4-24.5 81.9 9 112.2 4.1 115.5s-45-64.7-15.6-131c27-60.7 50.8-77.9 59-77.9z"/>
														<path d="m546 562.6c7.2 4.3-30.1 18.4-61.4 44.2-27.8 22.9-43.4 59.8-46.7 60.6s13.1-52.4 43.4-75.3 56.5-34.4 64.7-29.5z"/>
													</g>
													<path d="m941.8 1321.8c-64.4-38-134.4 24.9-182.7 24.4-119.4-1.3-95-140.5-95-140.5-69.7-54.7 4.6-93.2 4.6-93.2 4.4-21.9 27.4-31.8 27.4-31.8 45.4-21.2 72.1 23.5 72.1 23.5 19.1-5.1 33.9 9.2 33.9 9.2s24-40.7 56.5-37.9 44.7 19.4 44.7 19.4z" fill="#f5a52a"/>
													<path d="m904.3 1093.8c-22.1-22.5-71.1-24.9-102.2 18.6l-22.6-9.3s55.3 18.4 55.3 135.5c0 50.7-13 78.9-13 78.9s60.9-23.3 100.1-4.8c0 0-51.2-84.9-47.3-129.4s29.7-89.5 29.7-89.5z" fill="#af752f"/>
													<path d="m663.8 1114.4c-16.2-3.4-50.6 58.8.3 92.9 0 0-17.2 131.9 85.1 138.5s79.3-103.6 47-138.8c0 0 17.3-91.2-49.6-96.7l-16.3 14s-15.1-48.9-56.6-23.1z" fill="#fff"/>
													<path d="m767.5 1250.8c-4.9 25.7-36 6.3-50.5 6.7-14.9.4-27.4 11.3-35.2-4.7-14.3-29.5 12.7-55.7 36.4-56.3 23.7-.5 55.7 20.5 49.3 54.3z" fill="#f16767"/>
													<ellipse cx="750.5" cy="1158.7" fill="#f16767" rx="20.8" ry="32.4" transform="matrix(.9903 -.1391 .1391 .9903 -153.8567 115.6355)"/>
													<ellipse cx="695.2" cy="1142.2" fill="#f16767" rx="22.2" ry="34.6" transform="matrix(.9769 -.2137 .2137 .9769 -228.0354 174.9535)"/>
													<ellipse cx="657.1" cy="1174.5" fill="#f16767" rx="17.3" ry="26.9" transform="matrix(.9361 -.3517 .3517 .9361 -371.0892 306.1277)"/>
													<path d="m941.8 1321.8c-32.6-17.4-67.9-26.7-134.3 7" fill="none" stroke="#000" stroke-linecap="round" stroke-miterlimit="10" stroke-width="12.2844"/>
													<path d="m901 1092.2c-18.2-21.7-70.2-29.2-98.9 21" fill="none" stroke="#000" stroke-linecap="round" stroke-miterlimit="10" stroke-width="12.2844"/>
													<path d="m826.2 1301c-3.9 21.9-48.5 69.7-119.1 29.7-54.8-31-43-125.1-43-125.1s-32.1-15.3-28.5-48c3.6-32.6 25.5-45.8 33.1-45.3" fill="none" stroke="#000" stroke-linecap="round" stroke-miterlimit="10" stroke-width="12.2844"/>
													<path d="m687.8 1170.6c-13.2-9-37-58.5 1.5-85.8s70.6 8.6 78.9 19.3" fill="none" stroke="#000" stroke-linecap="round" stroke-miterlimit="10" stroke-width="12.2844"/>
													<path d="m740.9 1183.9c-11.1-12.7-32.7-58.8 11.3-76.1s91 28.7 91.8 85.2" fill="none" stroke="#000" stroke-linecap="round" stroke-miterlimit="10" stroke-width="12.2844"/>

													<g class="floki-right-paw">
														<path d="m608.5 901.8c-29.1 62.7 29 86.9 60.7 76.8 0 0 11 36.2 68.1 25.8 0 0 63.4 80.8 162.3 100 37.6 7.3 119 4.7 137.7-75.1 12.1-51.8-28.9-99.3-113.4-104.2-137.4-8-165.9-97.5-188.1-119.8-11.6-11.7-48.3-26.2-74.4 3.1-8.4 9.5-14.7 28.2-14.7 28.2s-40.3 12.6-38.2 65.2" fill="#f5a52a"/>
														<path d="m826.2 899.6c69.9 47.1 94 156.8 25.4 190.1 0 0 85.5 31.6 121.5 14.4s81.9-79.2 63.1-120.7-72.9-60.8-98.3-59.5c-63.9 3.2-111.7-24.3-111.7-24.3z" fill="#af752f"/>
														<path d="m652.9 851.6c-10-44.1 97-48.4 116.1 56.5 13.1 71.5-42.7 110.1-75.5 94-15.5-7.6-24.4-23.5-24.4-23.5s-101.4 10.3-55.7-80c0 0-9.6-41.7 39.5-47z" fill="#fff"/>
														<path d="m740.2 916.7c14.8 12.7-10.3 29.9-15.9 41.1-5.8 11.6-3.6 25-17.2 25.4-25 .8-31.2-29.1-22-47.4 9.1-18.3 35.6-35.7 55.1-19.1z" fill="#f16767"/>
														<ellipse cx="690.1" cy="865.4" fill="#f16767" rx="17.2" ry="26.8" transform="matrix(.5767 -.817 .817 .5767 -414.8941 930.1603)"/>
														<ellipse cx="652.5" cy="908.7" fill="#f16767" rx="17.9" ry="27.8" transform="matrix(.4317 -.902 .902 .4317 -448.901 1104.9481)"/>
														<ellipse cx="644.7" cy="960.2" fill="#f16767" rx="16" ry="24.9" transform="matrix(.2246 -.9744 .9744 .2246 -435.7708 1372.6473)"/>
														<path d="m608.5 901.8c-29.1 62.7 29 86.9 60.7 76.8 0 0 11 36.2 68.1 25.8 0 0 63.4 80.8 162.3 100 37.6 7.3 119 4.7 137.7-75.1 12.1-51.8-28.9-99.3-113.4-104.2-137.4-8-165.9-97.5-188.1-119.8-11.6-11.7-45.7-23.7-74.4 3.1-34 31.7 11.6 83 44.1 83.6" style="fill:none;stroke:#000;stroke-width:12.2844;stroke-linecap:round;stroke-linejoin:round;stroke-miterlimit:10"/>
														<path d="m669.3 932.4c-26.5 4.2-52.6-21.1-60.5-43.9-8-23.1 10.4-53.8 39.5-57.1" style="fill:none;stroke:#000;stroke-width:12.2844;stroke-linecap:round;stroke-linejoin:round;stroke-miterlimit:10"/>
													</g>

													<g class="floki-tail-2">
														<path d="m1518.4 1080.1c24-71.1-86.9-136.4-70.1-168.2 15.5-29.4 158.8-31 235.8 92.1 66 105.5 21.3 187.6-43.4 238.7-107.3 84.8-284.1-23.8-279.1-66.7 2.4-19.1 132.8-24.8 156.8-95.9z" fill="#fff"/>
														<path d="m1361.7 1176.1s202 66.9 255.3-54.4c10.4-23.6-12.8-5.7-12.8-5.7s44.5-91-6.3-138.6c-18.4-17.3-6 11.8-6 11.8s-61.6-111.2-143.5-77.3c-32.4 13.4 99.9 108.5 70.1 168.2-40.2 80.6-150.8 71.4-156.8 96z" fill="#f5a52a"/>
														<path d="m1713.8 1075.7c0-.1 0-.1 0-.2-.1.4-53.7 196.4-237 144.4 0 0 26.6-38.4-4.2-90.3-8.8 5-93.9 34.4-103.4 38.2-24.8 26.5 23.2 55.2 61.7 75.3 0 0 18.2 10.7 45.1 20 47 14.7 101 17.4 146.2-8 79.7-53.6 102.5-120.2 91.6-179.4z" fill="#bcbcc9"/>
														<path d="m1365.7 1177.3c13.8 1.4 105.6 17.5 120.5 17 2.8-16.2 1.8-38.9-13.9-65.1-8.9 5.4-18.2 9.8-27.4 13.5-38.9 11-76 14.8-79.2 34.6z" fill="#af752f"/>
														<path d="m1518.4 1080.1c24-71.1-86.9-136.4-70.1-168.2 15.5-29.4 158.8-31 235.8 92.1 66 105.5 21.3 187.6-43.4 238.7-107.3 84.8-284.1-23.8-279.1-66.7 2.4-19.1 132.8-24.8 156.8-95.9z" fill="none" stroke="#000" stroke-linecap="round" stroke-miterlimit="10" stroke-width="12.2844"/>
													</g>

													<path d="m1430.8 1243.3c0 .1-.1.1-.1.2 0-.1 0-.1.1-.2z" fill="#e0106f"/>
													<path d="m1430.3 1244.3c.2-.3.3-.6.4-.8-.2.3-.3.5-.4.8z" fill="#e0106f"/>
													<path d="m941.8 1321.8s84.8 43.7 117.4 35.4c0 0 38.8 27.5 64.1 23s43.7-14.6 43.7-14.6 142.3 30.3 218.9-45.8 68.8-229.3 22.1-319.7-125.2-146.3-157.7-148.1-322.7 87.9-322.7 87.9c8.5 18.8 22.2 54.8 19.4 64.8s-43.7 90.1-43.7 90.1-81.6 148.7 38.5 227z" fill="#f5a52a"/>
													<path d="m1167.5 1246.4c-3.6-26.9 31-114.3-35.2-102.8-5.3.9-18.1 11.6-18.1 11.6-8.6-51-48.6-32.6-48.6-32.6 10.2-6.2 40-102.9-14.5-187.1-16.8-25.9-108.7-22.7-123.3 4.4-6.2 11.5 22.7 43.6 19.5 64-6.9 43.2-127.5 171.1-43.6 279.9 43.8 56.8 125.1 59.4 155.6 72.9 12.7 5.6 23.9 16.6 41.9 20.5 100.1 21 72.6-83.5 66.3-130.8z" fill="#fff"/>
													<path d="m1129.1 1282.9c-8.5 24.8-36.6 1.1-50.9-.6-14.8-1.8-28.8 7.3-34.1-9.6-9.9-31.3 20.6-53.3 44-50.5 23.5 2.8 52.2 28.2 41 60.7z" fill="#f16767"/>
													<ellipse cx="1125.5" cy="1189.4" fill="#f16767" rx="32.4" ry="20.8" transform="matrix(.0041629 -1 1 .0041629 -68.5134 2309.9141)"/>
													<ellipse cx="1073.1" cy="1165" fill="#f16767" rx="22.2" ry="34.6" transform="matrix(.9974 -.0716247 .0716247 .9974 -80.6887 79.8542)"/>
													<ellipse cx="1030.8" cy="1191.6" fill="#f16767" rx="17.3" ry="26.9" transform="matrix(.9768 -.214 .214 .9768 -231.1408 248.2256)"/>
													<path d="m1276.4 854.3c-77.6 42.8-165 65.2-229.2 76.8 1.4 1.3 2.7 2.7 3.7 4.2 1 1.6 2 3.2 3 4.9-2.3-1.9-4.5-3.5-6.4-4.9 0 0 6.1 5.1 13.1 16.9 5 9.7 8.9 19.5 12.1 29.2.2 0 .3-.1.5-.1 8.4 27.8 12.7 69.6-.1 129.5 0 0 49.2-5.6 58.5 33 0 0 80.3-8.8 67.5 78-2.5 16.7 32.8 22.7 35.2 13.1 5.3-20.6-.2-62.5-42.3-77.5l14.1-19c5.7-34.5-68.2-136.2-119.3-186.2 62.2-9.6 139.2-17.2 194.1-42.5 80.6 46.7 167.8 237 98.3 359.8-54.9 97.2-188.2 99.5-188.2 99.5s207.8 46.8 248.4-158.7c45.1-228.2-163-356-163-356z" fill="#af752f"/>
													<path d="m1047.3 931.2c-55.1 10-93 12-93 12l-27.4-.5c-.9 9.5 11.3 27 17.3 43.1 17.5 17.4 70 10.8 128.6-4.2-5-15.4-12-30.9-21.9-46.1-.9-1.6-2.2-3-3.6-4.3z" fill="#bcbcc9"/>
													<path d="m1272.4 856.7c64.4 40.9 187.6 137.7 168.6 334-22.8 234.9-274 174.9-274 174.9" fill="none" stroke="#000" stroke-linecap="round" stroke-miterlimit="10" stroke-width="12.2844"/>
													<path d="m1185 1343.4c-6.7 21.2-57.1 62.8-121.9 14-50.3-37.8-26.4-129.7-26.4-129.7s-29.9-19.4-22-51.3c7.8-31.9 31.2-42.1 38.7-40.6" fill="none" stroke="#000" stroke-linecap="round" stroke-miterlimit="10" stroke-width="12.2844"/>
													<path d="m1064.8 1196.1c-11.9-10.6-29.1-62.8 12.6-84.9s68.9 17.7 75.7 29.4" fill="none" stroke="#000" stroke-linecap="round" stroke-miterlimit="10" stroke-width="12.2844"/>
													<path d="m1115.7 1216.2c-9.3-14-24.8-62.5 21.1-74s86.5 40.3 80 96.4" fill="none" stroke="#000" stroke-linecap="round" stroke-miterlimit="10" stroke-width="12.2844"/>
													<path d="m1332.9 1166.1c-17.4-63.9-99.1-80-141.8-7" fill="none" stroke="#000" stroke-linecap="round" stroke-miterlimit="10" stroke-width="12.2844"/>
													<path d="m1063.1 1357.4s-214.2-5.2-183-199.2c6.6-41.1 59.4-129.7 64-143.6 10.5-31.3-16.5-71.5-16.5-71.5" fill="none" stroke="#000" stroke-linecap="round" stroke-miterlimit="10" stroke-width="12.2844"/>
													<path d="m667.9 802.6c-5.4-2.8-8.7 9.9-16.5 14-29.2 15-82.2-23.9-100.2-88.3-18.8-67.4 21.6-120.2 100.3-140.3 124.7-31.9 169.3 99.3 255.6 69.5 69.4-24 102.3-198.5 223.7-231.6 23.8-6.5 326.2-70.8 332.3 163.8 8.8 341.8-510.6 354-510.6 354s-85.5 61.9-173.8 20.3c0 0-59.4-21.5-10.2-63.3 0-.1-17.2-54.5-100.6-98.1z" fill="#fff"/>
													<path d="m821.8 919.5s40 35.1 81.8-6.4c77.5-76.8-115.2-210-115.2-210s34 50.9-.6 89.1c-10.5 11.6-35.6 20.9-58.3 15.9.1 0 99.2 58.4 92.3 111.4z" fill="#303030"/>
													<path d="m752.6 809.5s40.9 53.7 50.8 47.2c11.7-7.9-14-61.1-14-61.1z" fill="#fff"/>
													<path d="m616.8 812.2s51.7 55.6 61.3 48.7c11.5-8.2-11.5-52.2-11.5-52.2s-3.8 9-19.4 8.2c-12.9-.7-30.4-4.7-30.4-4.7z" fill="#fff"/>
													<path d="m904.8 822.2c19.2 8 21.6 52.1 9.3 73.9-8.4 14.9-18.6 40.7-94.2 36.8 0 0 7.8-19.5 0-41s17.4-63.2 37.7-52.8c0 0 34.9-22.1 47.2-16.9z" fill="#f16767"/>
													<path d="m1340.6 347.3s-31.8-316.3-186.3-339.3c-38.8-5.8-145.5 206.7-145.5 206.7-42.7-1.3-64.8-5.5-101.2 2.4-23.8-25.8-124.3-136.3-241.3-108.3-52.3 12.5-15.8 190.4-1.5 234.4-73.5 89.7-92.5 193-72.3 277.8 0 0 7.5-12.9 59-32.9 71.8-27.9 179.9 98.2 249.1 72.9 63.6-23.2 82.3-107.4 118.9-138.1 79.8-67 154.8-92.9 187.7-96.8 56.7-6.8 206.1-3 243.6 96.8-.6-62.7-110.2-175.6-110.2-175.6z" fill="#f5a52a"/>
													<path d="m1073.3 237.4c22.7-3.4 147.1 19.8 170.9 53 0 0-.1-142.1-76.6-198 0 0-63.3 38.6-94.3 145z" fill="#f16767"/>
													<path d="m705.5 299c12.5-14.2 93.7-55 126.8-59.5 0 0-58.9-86-136.6-80.7 0 .1-27 56.9 9.8 140.2z" fill="#f16767"/>
													<path d="m867.8 499.9c-55.3 12.3-56.1 82.9-56.2 86.1-.2 6.6 5 12.1 11.6 12.3s12.1-5 12.3-11.6c0-.9 1.8-45.2 36.8-49.9 27.3-3.7 50.3 57.8 71.3 46.3 41.5-22.6-31.3-93-75.8-83.2z"/>
													<path d="m628.3 514.5c-33.2 10.9-34.6 51.1-34.6 53.1-.1 4.1 3.1 7.5 7.1 7.6 4.1.1 7.5-3.1 7.6-7.1 0-.5.5-20.7 15.4-24.2 16.5-3.8 25.2 29.6 43.6 22.1 32.3-13.1-11.3-60.6-39.1-51.5z"/>
													<ellipse cx="870.9" cy="401.5" fill="#fff" rx="43.1" ry="71.1" stroke="#fff" stroke-miterlimit="10" stroke-width="2.0811" transform="matrix(.2729 -.962 .962 .2729 246.9799 1129.8135)"/>
													<path d="m587.6 465.9c12.1-.2 26.7-6 39.7-16.7 22.1-18.3 31-43.9 20-57.3-4.4-5.3-11.1-7.9-19.1-7.9z" fill="#fff" stroke="#fff" stroke-miterlimit="10" stroke-width="2.0811"/>
													<ellipse cx="1006" cy="662.3" fill="#f16767" rx="61.8" ry="47.3" transform="matrix(.5958 -.8031 .8031 .5958 -125.3107 1075.6162)"/>
													<path d="m602.7 805.3s86 3.1 46.4-58.4c0 0 59.3 71.2 91.2 63.3 19.7-4.9 66.2 64 76.6 89.7 0 0-33-64.8-144.2-94.6 0 0-30.3 26.4-70 0z" fill="#bcbcc9"/>
													<path d="m784.7 703.1c15.6 10.2 14.2 92.3-20.5 98.7 0 0 30.4-4.1 42.2-42.6 11.9-38.5-21.7-56.1-21.7-56.1z" fill="#bcbcc9"/>
													<path d="m1156 8.2c119.3-.4 178.2 275.6 181.9 335.8 0 0 124.9 98.3 125.7 224.8s-90.1 265.3-233.8 315.7-269.3 58.2-269.3 58.2 281.5-42 388.4-167.4 83.9-312.1-44-408c0 0 0-224.8-148.9-359.1z" fill="#af752f"/>
													<path d="m1378.1 449.1c52.8 107 43.3 227.2-32.8 323.6-102.2 129.3-384.7 170-384.7 170s125.5-7.8 269.3-58.2c136.4-47.8 225.2-175.3 233.2-296.3-2.6-82.3-34.3-115.3-85-139.1z" fill="#bcbcc9"/>
													<path d="m897.9 220.5c-86.4-127.1-228-114.3-228-114.3 156.7 46.4 192.5 118.8 194.9 123.9-24.2 8.6-37.2 17.2-37.2 17.2s81.7-18.4 173.2-6.8l12.7-25.9c-46.6-5.1-85.6-1-115.6 5.9z" fill="#af752f"/>
													<path d="m818.5 874.3c3.4-22.4 29.2-43.5 41.1-37 0 0 32.4-28.9 47-11.6s16.6 35 12.9 43.1c-20.8-50.4-61.4 3.9-61.4 3.9s-7.2-18.2-39.6 1.6z" fill="#d64949"/>
													<path d="m696.5 158.9c19.5.8 103.3 18.8 129.3 81.9l-46.8 19.6-68.8 42.6c122.2-86-13.7-144.1-13.7-144.1z" fill="#d35353"/>
													<path d="m1161.2 90.5c16.4 10.5 83.1 61.8 83.1 199.9l-99.2-48.4c111.3 14.4 16.1-151.5 16.1-151.5z" fill="#d35353"/>
													<path d="m580.2 684.1c8.2-38.7 107.6-41.7 123.2-2.2 11.8 30-53.8 55.4-53.8 55.4s-75.4-24.4-69.4-53.2z" fill="none" stroke="#000" stroke-linecap="round" stroke-miterlimit="10" stroke-width="12.2844"/>
													<path d="m651.2 740.7s65.6-25.5 53.8-55.4c-15.6-39.5-115-36.4-123.2 2.2-6.1 28.7 69.4 53.2 69.4 53.2z"/>
													<path d="m585.2 681c-6.8 13.1 79.2 8.2 71.5.7-7.7-7.4-60.6-21.8-71.5-.7z" fill="#fff"/>
													<g fill="none" stroke="#000" stroke-linecap="round" stroke-miterlimit="10">
														<path d="m729.6 808.1c40 15.5 105.5 84.7 90 121.4" stroke-width="12.2844"/>
														<path d="m752.6 809.5s40.9 53.7 50.8 47.2c11.7-7.9-14-61.1-14-61.1z" stroke-width="9.8275"/>
														<path d="m616.8 812.2s51.7 55.6 61.3 48.7c11.5-8.2-11.5-52.2-11.5-52.2s-3.8 9-19.4 8.2c-12.9-.7-30.4-4.7-30.4-4.7z" stroke-width="9.8275"/>
														<path d="m907 828.3c-18.8-13-55.5 8.3-48.6 46" stroke-width="12.2844"/>
														<path d="m817.2 896.1c-3.3-25.9 16.8-66.3 47.7-55" stroke-width="12.2844"/>
														<path d="m588.6 617.4c-89.6 66.9-23.6 208.2 62.8 199.1 45.7-4.8-7.3-86.2-7.3-86.2s51.5 94.7 119.6 77c36.9-9.6 62.3-70.8 24.8-104.3 0 0 173.3 128.2 125.5 197.8-39.6 57.6-118.8 20.5-118.8 20.5" stroke-linejoin="round" stroke-width="12.2844"/>
														<path d="m587.7 616.2c-39.8-166.8 88.3-404.6 421.1-401.6" stroke-width="12.2844"/>
														<path d="m669.8 804.9c87 46.1 98.6 95.8 98.6 95.8s-48.3 32.8 10.2 63.3c38 19.8 123.8 19.1 173.8-20.3 0 0 485.7 1.1 510.6-354 10.1-143.5-122.5-242.4-122.5-242.4s-31-298.3-176-338.1c-64.3-17.7-164.7 226.4-164.7 226.4" stroke-width="12.2844"/>
														<path d="m898.7 221.9s-74.1-119.5-220.3-115.6c-80.1 2.1-16.9 231.5-16.9 231.5" stroke-width="12.2844"/>
														<path d="m1144.2 75c102.7 63.3 100 215.4 100 215.4-49.9-40.3-126.7-57.4-171.1-52.3 0 0 19.7-94.3 94.5-145.8" stroke-width="12.2844"/>
														<path d="m705.5 299s-33.1-70.5-9.8-140.2" stroke-width="12.2844"/>
														<path d="m672.1 159c97.2-9 153.6 75.8 153.6 75.8" stroke-width="12.2844"/>
													</g>
													<path d="m1040.7 1374.6h-922.7c-22.4 0-40.5-18.1-40.5-40.5v-18.5c0-22.4 18.1-40.5 40.5-40.5h922.6c22.4 0 40.5 18.1 40.5 40.5v18.5c.1 22.4-18.1 40.5-40.4 40.5z" fill="#dfe0e0"/>
													<path d="m109.1 1280c-43.4 112.2 245.9 70.5 491.5 88.9l-482.5 5.6c-39.3-17.6-43.1-42.8-40.5-59.5 4.4-29.2 31.5-35 31.5-35z" fill="#c1c6c6"/>
													<path d="m1040.7 1374.6h-426.4c-22.4 0-40.5-18.1-40.5-40.5v-18.5c0-22.4 18.1-40.5 40.5-40.5h426.3c22.4 0 40.5 18.1 40.5 40.5v18.5c.1 22.4-18.1 40.5-40.4 40.5z" fill="#c1c6c6"/>
													<path d="m640.2 1275.1h-531.9l-102-434.8c0-25.1 20.3-45.5 45.5-45.5h441c25.1 0 45.5 20.3 45.5 45.5z" fill="#dfe0e0"/>
													<path d="m105.8 1275.1s504-2.2 534-7c-371-37.7-500.4-173.8-616.7-465.6-2.4-6-10.6 4-16.8 19.6-6.1 15.7 99.5 453 99.5 453z" fill="#c1c6c6"/>
													<path d="m1040.7 1374.6h-922.7c-22.4 0-40.5-18.1-40.5-40.5v-18.5c0-22.4 18.1-40.5 40.5-40.5h922.6c22.4 0 40.5 18.1 40.5 40.5v18.5c.1 22.4-18.1 40.5-40.4 40.5z" fill="none" stroke="#000" stroke-linecap="round" stroke-miterlimit="10" stroke-width="12.2844"/>
													<path d="m1040.7 1374.6h-426.4c-22.4 0-40.5-18.1-40.5-40.5v-18.5c0-22.4 18.1-40.5 40.5-40.5h426.3c22.4 0 40.5 18.1 40.5 40.5v18.5c.1 22.4-18.1 40.5-40.4 40.5z" fill="none" stroke="#000" stroke-linecap="round" stroke-miterlimit="10" stroke-width="12.2844"/>
													<path d="m640.2 1275.1h-531.9l-102-434.8c0-25.1 20.3-45.5 45.5-45.5h441c25.1 0 45.5 20.3 45.5 45.5z" fill="none" stroke="#000" stroke-linecap="round" stroke-miterlimit="10" stroke-width="12.2844"/>
													<path d="m407.8 1058.6c15.6-13.1 20.8-32.9 11.5-45.3-9.8-13-31.7-12.9-49.1.2-8.6 6.5-14.5 14.9-17 23.4l-104-.7c-2.4-8.4-8.1-16.9-16.6-23.4-17.2-13.3-39.1-13.7-49.1-.8-9.5 12.2-4.5 32.1 10.8 45.4-15.6 13.1-20.8 32.9-11.5 45.3 9.8 13 31.7 12.9 49.1-.2 8.6-6.4 14.4-14.9 16.9-23.3l104.1.7c2.5 8.4 8.1 16.8 16.6 23.3 17.2 13.3 39.1 13.7 49.1.8 9.5-12.2 4.6-32-10.8-45.4z" fill="#f8ffff"/>

													<g class="floki-left-paw">
														<path d="m865.3 1208c-34.3-25-65.3-.2-61.4 40.5 3.4 35.6 45.1 50 60.1 41.7" fill="none" stroke="#000" stroke-linecap="round" stroke-miterlimit="10" stroke-width="12.2844"/>
														<path d="m864.8 1289.7c16.7-2.8 26.8 25.3 53.6 25.4 77 .3 234.4-182.3 234.4-279.9 0-88.5-69.5-94.8-69.5-94.8-52.8-7-98 18-107.3 102.2-15.1 136.8-110.6 138.9-110.6 138.9-38.1-44.6-80.6-15.7-88.8 11.2-8.6 28 18.9 46.7 26.5 64.6 14.5 34.3 33.7 37.1 61.7 32.4z" fill="#f5a52a"/>
														<path d="m871.9 1298.5c-9.8-11.5-29.4-47.4 9.4-73.7 0 0-53.6 4.5-40.9 65.1z" fill="#af752f"/>
														<path d="m810.8 1264.5c-7.4-13.2-19.5-52.2 23.7-70.4 0 0-47.9-4.8-49.5 51.2z" fill="#af752f"/>
														<path d="m1129.8 965.1c-18.7-27.9-71-40.3-102.3-19.5-31.3 20.9-45.5 60.2-45.5 60.2s67-85.3 147.8-40.7z" fill="#af752f"/>
														<path d="m865.3 1208c-34.3-25-65.3-.2-61.4 40.5 3.4 35.6 45.1 50 60.1 41.7" fill="none" stroke="#000" stroke-linecap="round" stroke-miterlimit="10" stroke-width="12.2844"/>
														<path d="m920.5 1226.2c-81.2-18.3-85.9 88.6-2.1 88.9 77 .3 234-182.3 234.4-279.9" fill="none" stroke="#000" stroke-linecap="round" stroke-miterlimit="10" stroke-width="12.2844"/>
														<path d="m1085.9 934.7c-52.8-7-100.6 23.7-109.9 107.9-15.1 136.8-110.6 138.9-110.6 138.9-38.1-44.6-80.6-15.7-88.8 11.2-8.6 28 7.8 59 26.5 64.6" fill="none" stroke="#000" stroke-linecap="round" stroke-miterlimit="10" stroke-width="12.2844"/>
													</g>

												</svg>