<svg width="231" height="350" enable-background="new 0 0 1150 1722.5" viewBox="0 0 1150 1722.5" xmlns="http://www.w3.org/2000/svg" xmlns:xlink="http://www.w3.org/1999/xlink"><linearGradient id="a"><stop offset="0" stop-color="#fff"/><stop offset="1" stop-color="#606060" stop-opacity="0"/></linearGradient><linearGradient id="b" gradientTransform="matrix(-1 0 0 1 1394.7 0)" gradientUnits="userSpaceOnUse" x1="676.5922" x2="676.5922" xlink:href="#a" y1="511.4729" y2="709.8312"/><linearGradient id="c" gradientTransform="matrix(-1 0 0 1 1394.7 0)" gradientUnits="userSpaceOnUse" x1="730.3738" x2="730.3738" xlink:href="#a" y1="511.4729" y2="709.8312"/><linearGradient id="d" gradientTransform="matrix(-1 0 0 1 562.6152 0)" gradientUnits="userSpaceOnUse" x1="260.5498" x2="260.5498" xlink:href="#a" y1="514.6416" y2="713"/><linearGradient id="e" gradientTransform="matrix(-1 0 0 1 562.6152 0)" gradientUnits="userSpaceOnUse" x1="314.3314" x2="314.3314" xlink:href="#a" y1="514.6416" y2="713"/><linearGradient id="f"><stop offset="0" stop-color="#dfe0e0" stop-opacity="0"/><stop offset="1" stop-color="#fff"/></linearGradient><linearGradient id="g" gradientTransform="matrix(-1 0 0 1 1770 0)" gradientUnits="userSpaceOnUse" x1="397.0992" x2="900.416" xlink:href="#f" y1="1318.71" y2="1318.71"/><linearGradient id="h" gradientTransform="matrix(-1 0 0 1 1770 0)" gradientUnits="userSpaceOnUse" x1="535.6193" x2="995.8895" xlink:href="#f" y1="1391.0013" y2="1391.0013"/><path d="m171.7 1411.4c-67.8-13.2-69.5-131.7-102.6-132.7-30.6-1-97.2 112.9-33.8 230.5 54.3 100.9 140.3 102.6 210.6 74.1 116.7-47.1 110.5-238 73.9-253.5-16.2-6.9-80.3 94.8-148.1 81.6z" fill="#fff"/><path d="m319.9 1329.9s-38.6 192-159.9 179.3c-23.6-2.5 1.3-12.8 1.3-12.8s-93-5.9-107.9-68.2c-5.4-22.6 12.2.6 12.2.6s-60.8-99.9 3.6-150c25.5-19.8 41.2 129.3 102.6 132.7 82.7 4.6 125.7-88.1 148.1-81.6z" fill="#f5a52a"/><path d="m342 1415.7s.1 0 0 0c .1 0 .1 0 0 0z" fill="#e0106f"/><path d="m342.1 1415.7c.1 0 .1 0 0 0z" fill="#e0106f"/><path d="m51 1536.8s0 .1 0 0c .4.1 86.3 81.2 165.8 17.4 0 0-24.8-67.6-24.8-138.5 31-6.3 56.1-28.8 63.4-34.6 14.1 14.7 78 34.4 86.7 34.6 0 0 .3 19.4-4.6 45.2-9.7 44.3-32.1 88.7-73 113.3-79.4 39.2-168.5 37.8-213.5-37.4z" fill="#bcbcc9"/><path d="m342.2 1415.7h.2c-.1 0-.1 0-.2 0z" fill="#e0106f"/><path d="m343.2 1415.8c-.3 0-.6 0-.8 0 .3-.1.5-.1.8 0z" fill="#e0106f"/><path d="m274.8 1414.3c-5.2 11.7-64.8 78.7-72 90.4-7.5-30.3-10.8-59.5-10.8-89 8.4-4.6 34.8-16.7 42-22.4 6.5 6.7 23.5 14.5 40.8 21z" fill="#af752f"/><path d="m171.7 1411.4c-67.8-13.2-69.5-131.7-102.6-132.7-30.6-1-97.2 112.9-33.8 230.5 54.3 100.9 140.3 102.6 210.6 74.1 116.7-47.1 110.5-238 73.9-253.5-16.2-6.9-80.3 94.8-148.1 81.6z" fill="none" stroke="#000" stroke-linecap="round" stroke-miterlimit="10" stroke-width="11.306"/><path d="m974.5 412s56.1-240.5-65.2-380.1c-82.8-95.3-209.9 147-209.9 147s-59.8-38.7-168.4-38.7c-104.4 0-178.7 38.7-178.7 38.7s-127.1-242.3-209.8-147c-121.3 139.6-65.2 380.1-65.2 380.1-46.4 81.1-71.5 182.5-45.6 303.9 54.3 254.6 385.6 262.1 385.6 262.1h2.5v.1c0 1.4-1.1 2.4-2.5 2.4 0 0 0 0-.1 0-.3 0-11.8-.3-30.7-2.4-.4.3-1 .4-1.5.4-25.3-2.4-74.6 7.5-119.8 24.1-54.1 19.8-93.1 45.6-107.1 70.6-8.1 14.5-8.7 38.8-1.9 68.5 4.5 19.3 11.7 39.3 20.8 57.5v.1c3.8 7.7 8 15.1 12.3 22 .5.7.5 1.6.2 2.4-.4.8-1.1 1.3-2 1.4-.8.1-20.7 2.8-23.1 24.5-.1 1.1-1 2-2 2.2-1.1.2-2.2-.4-2.7-1.3-.1-.2-10.4-20.1-32-22-10-.9-20.2 6.4-23.8 16.8-2.6 7.5-5 27.3 28 48.6 22.4 14.5 52.6 15.5 80.6 2.7 1-.5 2-1 3-1.4 0 0 .1 0 .1-.1 33-16.3 55.7-48 61.1-85.4 7.4-52.2-13.6-79.8-13.8-80.1-.8-1.1-.7-2.7.4-3.5 1.1-.9 2.7-.7 3.5.4.9 1.2 22.6 29.5 14.8 83.9-5.5 38.7-28.9 71.5-62.9 88.7-25.1 74.2 16.5 224.5 32.3 281.2 3.5 12.5 5.1 18.5 5.4 20.7 1.1 10.2-9.9 17.9-16.6 21.7 3.1 1.5 5.7 3 7.5 4.2.7.5 1.1 1.2 1.1 2 2.8-2.8 5.9-4.9 9.4-6.3 12.6-5.2 29.1-.8 46.5 12.4 2.7-3.2 5.8-5.9 9.2-7.8 7.9-4.3 21-6.2 38.9 8.8 1.1.9 1.2 2.5.3 3.5-.9 1.1-2.5 1.2-3.5.3-12.4-10.5-24-13.3-33.3-8.2-15 8.1-21.6 34.1-19.2 53.5 1.8 14.1 7.8 23.5 16.5 25.7 25 6.4 71.1 7.8 88.7-15.6 9.7-13 6.8-25.1 1.5-47-2.8-11.5-6.3-25.9-8.6-44.1-2.4-18.7 9-76.1 9.5-78.6.3-1.4 1.6-2.2 2.9-2 1.4.3 2.2 1.6 2 2.9-.1.6-11.7 59-9.5 76.9 2.3 17.9 5.7 32.1 8.5 43.5 4.1 17 7.2 29.6 3 41.3h.1c45.8 0 55-87.9 55.1-88.7.1-1 .7-1.8 1.6-2.1s1.9-.1 2.6.6c15.8 15.4 46.1 26.8 78.1 17.8 38.2-10.8 67.2-48 81.7-104.8l62.4-310.9c-7.3-.9-16.5-4.8-21.6-13.7-7.6-12.9-4.7-31.8 8.5-56.1.7-1.2 2.2-1.7 3.4-1s1.7 2.2 1 3.4c-12.1 22.4-15.1 40.1-8.5 51.2 5.2 8.9 15.3 11.3 20.4 11.4h1.1c42.5 0 53.8-33.2 62.1-57.5 3.6-10.6 6.5-18.9 11.3-22.1 5.9-3.9 16.2-6.4 28-9.3 16.9-4.1 36-8.8 49.8-18.6 15.6-11.2 20.8-26.9 15.8-48.1-9-38.1-27.7-60.6-41.9-72.8-13.3-11.5-25.2-16.3-28.2-17.4-83.7 28.8-158.8 30.8-159.6 30.8 0 0 0 0-.1 0-1.4 0-2.5-1.1-2.5-2.4 0 0 0 0 0-.1h2.5s331.3-7.5 385.7-262.1c26-121.100000000002.9-222.500000000001-45.5-303.600000000002z" fill="#f5a52a"/><path d="m231.9 1672c2.3-18.3 7.1-31.9 14.2-40.5-.5 0-1.1-.1-1.6-.4-11.5-7.7-23.9-9.8-33.1-5.5-11.8 5.4-19.6 21-22.6 45.1-2 16 1 27.4 9 33.9 12.6 10.2 34.5 6.2 44.3 3.7-8.8-7.6-12.3-19.8-10.2-36.3z" fill="#f5a52a"/><path d="m301.4 1639.2c-16-12.2-30.8-16.4-41.7-11.9-12.1 5-19.8 20.3-22.9 45.3-1.9 14.9 1.1 25.7 8.9 32.1 1 .8 2 1.5 3.1 2.1.3.1.6.3.8.5 15.9 8.7 41.5 2.7 50.3.3-4.1-5.3-6.9-12.6-8-21.7-2-15.4 1.3-34 9.5-46.7z" fill="#f5a52a"/><path d="m128.2 1223.5c17 1.5 27.5 12.4 32.5 19.2 4.3-14.7 16.4-19.9 22.6-21.7-3.7-6-7.2-12.4-10.5-19-12.6-8.2-23-10.5-31-6.7-11.2 5.3-15.1 21.4-16.3 28.1.9 0 1.8 0 2.7.1z" fill="#f5a52a"/><path d="m188.2 1685.3s-1.8 39.8 53.9 22.9c0 0 23.9 13.8 61.5.8 0 0 51.4 23 97.7-9 0 0-62.7 21.4-104.1-11.7 0 0-26.1 28.2-63-.4.1 0-20.4 26.8-46-2.6z" fill="#fff"/><path d="m100.2 1254s20.1-19.3 56.8 11.3c0 0 51.3-18.6 32.6-41.6l-28.8 19s-55.4-44.2-60.6 11.3z" fill="#fff"/><path d="m583.9 1106.8s-14.7 45.8 23.4 56.8c0 0 4.2 57.5 65.5 25.3 0 0 22.9 24.5 54.1 2.1s38.6-62.7 38.6-62.7-37 77.5-93.1 40.3c0 0-40.2 42-60.8-15-.1.1-29.9-10.6-27.7-46.8z" fill="#fff"/><path d="m135.3 343.4c37.4-64.4 155.7-132.2 155.7-132.2-19.2-53.1-92.1-118.7-114.7-105.5 0 0-48.5 65.3-41 237.7z" fill="#f16767"/><path d="m914.5 340.1c-36.5-63.5-152.1-130.4-152.1-130.4 18.7-52.4 90-117 112.1-104 0 0 47.4 64.4 40 234.4z" fill="#f16767"/><path d="m914.4 689.7c-75.8 0-136.5 87-208.6 73.9-41.8-7.5-84.1-110.2-179.1-110.2-86.9 0-136.2 104.9-180.6 112.3-63.4 10.6-132.9-76-208.6-76-58.6 0-104.8 14.8-104.8 14.8 14.6 172.2 235.6 275.6 385.3 274.6 35 184.4-237 282.9-65.7 465.9 95.1 101.5 249.4 31 265.7-10 8.8-22.1 12.8-132.7 14.6-239.4-9.8-3.9-24.7-30.7-25.3-32-1.9-.7-18.3-12.5-22.3-20.3-5-9.6-6.5-20.4-3.8-31 2.8-11.2 49.1-63.6 52.8-65.7.1-40.7 0-67.5 0-67.5 165.8-10.6 370.7-102.4 385.3-274.6 0 0-46.2-14.8-104.9-14.8z" fill="#fff"/><ellipse cx="285.2" cy="412.5" fill="#fff" rx="86.5" ry="53.7" transform="matrix(.8895 -.4569 .4569 .8895 -156.9793 175.9073)"/><ellipse cx="753.7" cy="412.5" fill="#fff" rx="53.7" ry="86.5" transform="matrix(.4569 -.8895 .8895 .4569 42.3589 894.4156)"/><ellipse cx="237.7" cy="794.5" fill="#f16767" rx="37.6" ry="48.3" transform="matrix(.3006 -.9537 .9537 .3006 -591.4808 782.4147)"/><ellipse cx="808.5" cy="790.8" fill="#f16767" rx="48.3" ry="37.6" transform="matrix(.9537 -.3006 .3006 .9537 -200.3384 279.6036)"/><path d="m830.1 530c-24.1-2.9-57-4.2-90.1-4.2-36.9 0-74.2 1.6-100 4.2-27.5 2.8-46.5 23.5-44.2 48.2v.2c-.1 50.5 14.7 92.1 42.8 120.2 25.6 25.6 61.8 39.7 102 39.7h18.8c53 0 94.4-36.4 105.5-92.7 5.8-29.5 8.5-64.4 8.7-66.3.3-27.9-15.5-45.9-43.5-49.3z" fill="#1e2432"/><path d="m409.9 534.6c-48.9-4.9-139-6.2-190.1 0-27.9 3.4-43.8 21.4-43.5 49.4.1 1.9 2.9 36.8 8.7 66.3 11 56.3 52.4 92.7 105.5 92.7h18.8c40.2 0 76.4-14.1 102-39.7 28.1-28.1 42.9-69.7 42.8-120.2 0-.1 0-.2 0-.2 2.3-24.9-16.7-45.6-44.2-48.3z" fill="#1e2432"/><path d="m737 709.8h49l-86.8-198.3h-49z" fill="url(#b)"/><path d="m695.5 709.8h24.5l-86.8-198.3h-24.5z" fill="url(#c)"/><path d="m320.9 713h49.1l-86.8-198.4h-49.1z" fill="url(#d)"/><path d="m279.4 713h24.6l-86.9-198.4h-24.5z" fill="url(#e)"/><path d="m848.7 509.5c-16.3-.9-161.3-8.4-226.8 0-31.3 4-51.1 28.8-48.2 60.2v.2c0 5.6.1 11.1.3 16.5-5.8-5.7-21.7-16.3-47.7-16.3-36.7 0-50.1 18.4-50.4 19.2.2-4.9.3-9.8.3-14.9 0-.1 0-.2 0-.2 2.9-31.4-16.9-56.2-48.2-60.2-65.5-8.4-210.5-.9-226.8 0-32.5 1.8-52.5 24.5-52.1 59.4.2 2.1 3.5 43.8 10.4 79.1 13.2 67.4 62.7 110.9 126.2 110.9h22.3c100-5.6 154.5-54.3 165.9-148.5v.1c7.1-6.6 28.2-23.7 52.4-23.8h.3c24.6 0 43.3 14.7 49.6 21.6 12 92.6 66.4 140.6 165.6 146.1h22.3c63.5 0 113-43.5 126.2-110.9 6.9-35.3 10.2-77 10.4-79.1.5-34.8-19.5-57.6-52-59.4zm-389.6 73.6c.1 51.8-15.2 94.6-44.3 123.7-26.5 26.6-64 41.2-105.5 41.2h-18.8c-27.3 0-52.2-9.2-72-26.7-19.6-17.3-32.9-41.5-38.4-70-6-30.5-8.8-66.6-8.8-66.9 0-.1 0-.1 0-.2-.4-31 17.1-50.8 47.9-54.5 51.4-6.2 142-5 191.2 0 30.2 2.9 51.2 25.9 48.7 53.4zm419.5-3.3c0 .4-2.8 36.5-8.8 66.9-5.6 28.5-18.9 52.7-38.4 70-19.8 17.5-44.6 26.7-72 26.7h-18.8c-41.5 0-79-14.6-105.5-41.2-29-29.1-44.3-71.8-44.3-123.7-2.5-27.5 18.5-50.5 48.7-53.5 49.2-5 139.8-6.2 191.2 0 30.8 3.7 48.3 23.6 47.9 54.5z" fill="#15619f"/><path d="m414.8 706.7c-3.3 3.3-6.7 6.3-10.2 9.2 6.5-4.5 12.6-9.6 18.2-15.2 29-29.1 44.3-71.8 44.3-123.7 2.5-27.5-18.5-50.5-48.7-53.5-49.2-5-139.8-6.2-191.2 0-13.6 1.6-24.6 6.4-32.6 13.9 6.8-4.1 15.1-6.8 24.6-7.9 51.4-6.2 142-5 191.2 0 30.2 3.1 51.2 26 48.7 53.5.1 51.9-15.2 94.7-44.3 123.7z" fill="#124568"/><path d="m869.8 646.7c-5.6 28.5-18.9 52.7-38.4 70-.9.8-1.9 1.6-2.8 2.4 3.8-2.5 7.4-5.3 10.8-8.4 19.6-17.3 32.9-41.5 38.4-70 6-30.5 8.8-66.6 8.8-66.9 0-.1 0-.1 0-.2.4-31-17.1-50.8-47.9-54.5-51.4-6.2-142-5-191.2 0-13.3 1.3-24.8 6.6-33.3 14.3 7.2-4.4 15.8-7.4 25.3-8.3 49.2-5 139.8-6.2 191.2 0 30.8 3.7 48.3 23.6 47.9 54.5v.2c0 .3-2.8 36.4-8.8 66.9z" fill="#124568"/><path d="m316.1 757.4h-22.3c-63.5 0-113-43.5-126.2-110.9-6.9-35.3-10.2-77-10.4-79.1-.2-19.5 5.9-35.2 17.1-45.6-16.2 9.7-25.4 27.8-25.1 51.6.2 2.1 3.5 43.8 10.4 79.1 13.2 67.4 62.7 110.9 126.2 110.9h22.3c47.1-2.7 84.1-14.9 111.3-36.9-26.3 18.3-60.7 28.5-103.3 30.9z" fill="#124568"/><path d="m772.2 752.9h-22.3c-99.2-5.6-166.5-48.9-178.9-207.7 6.5 103.1-11.7 40-36.3 40-.1 0-.2 0-.3 0-20.5.1-38.8 12.4-48.2 20.2 10.1-6.9 24.5-14.1 40.2-14.2h.3c24.6 0 43.3 14.7 49.6 21.6 12 92.6 66.4 140.6 165.6 146.1h22.3c30.1 0 57.1-9.8 78.6-27.3-20 13.7-44.1 21.3-70.6 21.3z" fill="#124568"/><path d="m193.3 522.1c16.3-.9 161.3-8.4 226.8 0 31.3 4 47.5 23.1 48.2 60.2 1.3 66-13.7 96.1-13.9 101 0 0 19.2-30.9 24-91.1.3-3.5 3.4-14 40-14 26 0 41.8 10.6 47.7 16.3-.2-4.6-.3-9.4-.3-14.2-8.3-5-21.4-10-39.4-10-36.7 0-50.1 18.4-50.4 19.2.2-4.9.3-9.8.3-14.9 0-.1 0-.2 0-.2 2.9-31.4-16.9-56.2-48.2-60.2-65.5-8.4-210.5-.9-226.8 0-17.3.9-31 7.8-40 19.3 8.3-6.8 19.2-10.7 32-11.4z" fill="#5fa4d3"/><path d="m587.9 586.6c-.1 51.8 15.2 94.6 44.3 123.7 26.5 26.6 64 41.2 105.5 41.2h18.8c27.3 0 52.2-9.2 72-26.7 3.1-2.7 6-5.6 8.8-8.7-.3.2-.5.5-.8.7-19.8 17.5-44.6 26.7-72 26.7h-18.8c-41.5 0-79-14.6-105.5-41.2-29-29.1-44.3-71.8-44.3-123.7-1.1-12.6 2.7-24.2 10-33.4-12.5 9.9-19.5 24.8-18 41.4z" fill="#5fa4d3"/><path d="m848.7 509.5c-16.3-.9-161.3-8.4-226.8 0-15.7 2-28.5 9.2-37 19.9 7.8-6.3 17.6-10.5 29-11.9 65.5-8.4 210.5-.9 226.8 0 32.5 1.8 52.5 24.5 52.1 59.4-.2 2.1-3.5 43.8-10.4 79.1-5.6 28.5-17.6 52.7-34.5 71.1 21-19.2 36.1-46.3 42.5-79.1 6.9-35.3 10.2-77 10.4-79.1.4-34.8-19.6-57.6-52.1-59.4z" fill="#5fa4d3"/><path d="m166.4 591.1v.2c0 .4 2.8 36.5 8.8 66.9 5.6 28.5 18.9 52.7 38.4 70 19.8 17.5 44.7 26.7 72 26.7h18.8c41.5 0 79-14.6 105.5-41.2 1.3-1.3 2.6-2.6 3.8-4-26.2 24-61.9 37.2-101.3 37.2h-18.8c-27.3 0-52.2-9.2-72-26.7-19.6-17.3-32.9-41.5-38.4-70-6-30.5-8.8-66.6-8.8-66.9 0-.1 0-.1 0-.2-.2-14.3 3.5-26.3 10.5-35.3-12.3 9.5-18.8 24.3-18.5 43.3z" fill="#5fa4d3"/><path d="m1083.6 1115.5h-298.5c-6.2.3-12.1.8-17.8 1.5-.6 9.6-4 17.6-8.1 26.5-5.6 12.2-10.8 23.4-19.6 33.8-13.8 16.4-34.9 21.6-55.3 17.2-4.5-1-8.3-2.9-11.6-5.5-4.2 4.3-8.9 7.5-15.1 9.5-6.5 2.1-13.5 1.5-19.8-.7-1.3 2.6-2 4.5-2.3 5.2v454.8c0 28 22.8 50.9 50.9 50.9h397.3c28 0 50.9-22.8 50.9-50.9v-491.4c-.1-28.1-22.9-50.9-51-50.9z" fill="#dfe0e0"/><path d="m1083.6 1115.5h-298.5c-6.2.3-12.1.8-17.8 1.5-.6 9.6-4 17.6-8.1 26.5-5.6 12.2-10.8 23.4-19.6 33.8-13.8 16.4-34.9 21.6-55.3 17.2-4.5-1-8.3-2.9-11.6-5.5-4.2 4.3-8.9 7.5-15.1 9.5-6.5 2.1-13.5 1.5-19.8-.7-1.3 2.6-2 4.5-2.3 5.2v454.8c0 28 22.8 50.9 50.9 50.9h397.3c28 0 50.9-22.8 50.9-50.9v-491.4c-.1-28.1-22.9-50.9-51-50.9z" fill="#fff"/><path d="m1070.6 1129.5h-298.5c-6.2.3-12.1.8-17.8 1.5-.6 9.6-4 17.6-8.1 26.5-5.6 12.2-10.8 23.4-19.6 33.8-13.8 16.4-34.9 21.6-55.3 17.2-4.5-1-8.3-2.9-11.6-5.5-4.2 4.3-8.9 7.5-15.1 9.5-6.5 2.1-13.5 1.5-19.8-.7-1.3 2.6-2 4.5-2.3 5.2v454.8c0 28 22.8 50.9 50.9 50.9h397.3c28 0 50.9-22.8 50.9-50.9v-491.4c-.1-28.1-22.9-50.9-51-50.9z" fill="#dfe0e0"/><path d="m1098.6 1692.5h-397.2c-28 0-50.9-22.8-50.9-50.9v-439.3c-5.3.8-10.7 0-15.7-1.7-1.3 2.6-2 4.5-2.3 5.2v454.8c0 28 22.8 50.9 50.9 50.9h397.3c19.3 0 36-10.8 44.7-26.6-7.8 4.9-17 7.6-26.8 7.6z" fill="#85869f"/><path d="m1023.9 1033.3h-158.4l-.4.4c.5 1.2.9 2.5 1.3 3.8 5.2 17.6-.4 37-13.5 49.8-4.5 4.4-10 8.4-15.6 11.3-2.3 1.2-4.6 2.3-7 3.3-3.4 2.6-7.2 4.5-11.3 5.8-1.1 1-2.3 1.9-3.6 2.8h268.2c10.2 0 19.8 2.8 28 7.6-42.3-61.5-59.9-84.8-87.7-84.8z" fill="#85869f"/><path d="m1089.7 1110.8c7.9.9 15.4 3.4 22 7.2-42.3-61.4-60-84.7-87.8-84.7h-17c26.7 0 44 21.5 82.8 77.5z" fill="#fff"/><path d="m176.1 100.1c-54.9 53-44.5 247.3-44.5 247.3s74.4-89.8 108.8-96.3c-118.9 61-64.3-151-64.3-151z" fill="#d35353"/><path d="m872 94.3c54.9 53 44.5 247.3 44.5 247.3s-72.5-82.5-106.9-89c130.7 64.7 62.4-158.3 62.4-158.3z" fill="#d35353"/><path d="m411.3 808.7s58.7 61 113.4 5.9c0 0 18.8 52.4 77.1 41.6s51.9-58.2 51.9-58.2 15.5 63.3-46.9 75.3c-60.2 11.6-85.3-33-85.3-33s-74.3 45.8-110.2-31.6z" fill="#bcbcc9"/><path d="m421.6 847s12.1 70.9 80 67c0 0-92.5 11.6-80-67z" fill="#bcbcc9"/><path d="m610 1153.1c.4-9.9 4.4-27.2 25.3-42.1 0 0-21.1 0-35.8 35.3 4.4 3.7 8.5 5.8 10.5 6.8z" fill="#af752f"/><path d="m599.5 1146.3c-1.2 2.9-2.4 6.1-3.5 9.5l14.6 5.3s-.7-3.1-.5-8c-2.1-1-6.2-3.1-10.6-6.8z" fill="#bcbcc9"/><path d="m660 1191.1 14.2-4.5s-4.8-3.9-6.2-14c-2.5 2.1-6 4.6-10.1 6.7.5 3.6 1.1 7.6 2.1 11.8z" fill="#bcbcc9"/><path d="m668.1 1172.5c-1.1-8.7.3-22.1 9.9-41.4 0 0-23.6 12.3-20 48.2 4.1-2.2 7.5-4.7 10.1-6.8z" fill="#af752f"/><path d="m174.8 1200.3s-29.8-15.3-34.8-9.2-14.8 20.4-17.4 35.2c0 0 38.8 6.1 40.1 18.9 0 0 14-20.8 24.6-22.5 10.7-1.7-3.2-5.3-3.2-5.3z" fill="#bcbcc9"/><path d="m261.8 1123.8 17.3 32 30.5-54.8c-.1 0-16.8 15.8-47.8 22.8z" fill="#af752f"/><path d="m212.7 1299.3s55.9-22.4 66.7-89.3c0 0 7.2 88.8-69.6 121.9z" fill="#af752f"/><path d="m234.3 1687.9c.2.2.5.4.7.5-4.9-25.3 11-59.4 11-59.4-27.1 18.5-27.1 49.3-24 68.1 7.6-3.1 12.3-9.2 12.3-9.2z" fill="#af752f"/><path d="m235 1688.4c-.2-.2-.5-.4-.7-.5 0 0-4.7 6.1-12.3 9.3 1.2 6.9 2.7 12.3 3.5 14.7 4.9-.6 10.4-1.8 16.7-3.7 0 0 1.1.6 3.1 1.5l2.7-.5c-7.5-5-11.4-12.4-13-20.8z" fill="#bcbcc9"/><path d="m295.8 1689.6c-5-25.8 7.9-51.9 7.9-51.9-25.9 19.8-27.3 45.4-25 61.3 8.6-2.4 14.5-7.1 17.1-9.4z" fill="#af752f"/><path d="m278.7 1699c1.3 8.8 3.7 14.6 3.7 14.6l21.3-4.6c-4.2-6.1-6.6-12.7-7.9-19.4-2.6 2.3-8.5 7-17.1 9.4z" fill="#bcbcc9"/><path d="m406.8 1526.3s-11.6 51.1-9.8 69.7 17.7 79.1 13.8 95.1c0 0 44.1 12 58.1-91 0 0 114.7 87.5 166.3-88.2l-2.3-315.2s-28.9-12.9-22.4-35.5c0 0 21.5 353.3-169.6 373.5z" fill="#af752f"/><path d="m609.6 1167.9c0 2.7.6 5.3 1.5 7.6 0-2-.1-3.8-.1-5.4-.5-.8-1-1.5-1.4-2.2z" fill="#bcbcc9"/><path d="m618 1435c8.8-22.1 12.8-132.2 14.6-238.6-2.6-1.2-16.8-8.5-21.5-20.8 1.2 51.8-.9 229.6-80.9 314.4 45.2-12.2 80.5-36.6 87.8-55z" fill="#bcbcc9"/><path d="m736.3 972.5c52.6-17.4 83.4-35.1 83.4-35.1-197.3 72.9-528.8 20-528.8 20 75.9 31.9 148.8 45.4 215 48.1h.1c11.7.5 23.1.6 34.3.4 81.1 3.5 87.8 24.6 86.5 34.4-.6 1.6-1.1 3.3-1.6 5-.7 2.5-1.3 5.1-1.7 7.8 0 0 40.1-60.4 133-36.1-9-2.5-53.2-16.3-20.2-44.5z" fill="#af752f"/><path d="m291 957.4c4.9 2.1 9.8 4.1 14.7 6 38.9 10.6 77.5 16 112.2 15.7 1.1 5.7 1.9 11.3 2.4 16.9 29.5 5.4 58.2 8.4 85.7 9.4h.1c11.7.5 23.1.6 34.3.4 81.1 3.5 87.8 24.6 86.5 34.4-.6 1.6-1.1 3.3-1.6 5-.7 2.5-1.3 5.1-1.7 7.8 0 0 3.4-5.1 10.5-11.8.1-37.7 0-62.2 0-62.2 48.7-3.1 100.7-13.2 150.3-30.3-199.1 55.7-493.4 8.7-493.4 8.7z" fill="#bcbcc9"/><path d="m724.7 1004s45.2 21.5 60.7 23.4c12.1 1.4-12.1-34.2-60.7-23.4z" fill="#af752f"/><path d="m858.2 1030.2s12.1 27.5 1.6 45.4c-9.1 15.3-25.5 28.5-82.5 34.1 0 0 100.7-17 80.9-79.5z" fill="#af752f"/><path d="m32.7 704.5s8-2.6 21.7-5.6c-29.5-140.4 18.7-279.4 18.7-279.4-161 376.7 80.4 498.5 203.7 535.1-119.1-40.1-233.8-127.7-244.1-250.1z" fill="#af752f"/><path d="m54.3 698.9c-13.6 3-21.7 5.6-21.7 5.6 10.3 122.4 125 210 244.2 250.1 38.3 11.4 65.2 14.5 65.2 14.5-190-43.2-264-157.2-287.7-270.2z" fill="#bcbcc9"/><path d="m343.4 1497.3 63.9 26.5s-12.1 55.5-13 90.2 2.4-68.5-50.9-116.7z" fill="#af752f"/><path d="m526.2 784.7c15.7 83.3-153.5 64.6-113.5-19.7" style="fill:none;stroke:#000;stroke-width:12;stroke-linecap:round;stroke-linejoin:round;stroke-miterlimit:10"/><path d="m529.6 784.7c-26.6 95.3 158.9 100.8 118.1-12.3" style="fill:none;stroke:#000;stroke-width:12;stroke-linecap:round;stroke-linejoin:round;stroke-miterlimit:10"/><path d="m428.2 830.3c-8.7 35.5 22.6 81.1 73.4 78.7" style="fill:none;stroke:#000;stroke-width:12;stroke-linecap:round;stroke-linejoin:round;stroke-miterlimit:10"/><path d="m466.4 719.8c11.1-25.8 113.5-27.7 131.4 0 22.5 34.8-59.5 71.4-68.7 71-9.1-.3-77.7-36.1-62.7-71z"/><path d="m583.4 733.7c-1.6 13.5-11.3 3.8-24.9 2.2-13.5-1.6-34.5-3.1-33.8-9.2s21.9-8.5 35.5-6.9 23.9 7.8 23.2 13.9z" fill="#fff"/><g fill="none" stroke="#000" stroke-linecap="round" stroke-linejoin="round" stroke-miterlimit="10"><path d="m189.8 76.5c-69.4 72.7-56 266.9-56 266.9 48.2-57 109.6-104.6 157.2-133.4 0 0-49.7-100.9-115.8-106.4" stroke-width="13.2123"/><path d="m858.3 76.5c69.4 72.7 56 266.9 56 266.9-48.2-57-109.5-104.6-157.1-133.5 0 0 49.7-100.9 115.8-106.4" stroke-width="13.2123"/><path d="m417.3 978s-331.3-7.5-385.7-262.1c-25.8-121.4-.7-222.8 45.7-303.9 0 0-56.1-240.5 65.2-380.1 82.8-95.3 209.9 147 209.9 147s74.2-38.7 178.7-38.7c108.6 0 168.4 38.7 168.4 38.7s127.1-242.3 209.9-147c121.1 139.6 65.1 380.1 65.1 380.1 46.5 81.1 71.5 182.5 45.6 303.9-54.3 254.6-385.7 262.1-385.7 262.1" stroke-width="12"/><path d="m313 1106c-11 27-35.5 51.4-35.5 51.4" stroke-width="12"/><path d="m342 1486.7c17.3 24.6 107.3 74.7 198 36" stroke-width="12"/><path d="m385.3 976c-49.3-4.6-196.7 37.3-229.3 96-18.1 32.6 2 104.7 31.3 150.7 0 0-22.7 2.7-25.3 26.7 0 0-10.7-21.3-34-23.3s-50 36 2.7 70 137.4-6.9 148.7-86c7.7-54-14.3-82-14.3-82" stroke-width="12"/><path d="m122.6 1226.2s5.4-56.9 52.2-25.9" stroke-width="12"/><path d="m406.8 1526.3s-11.9 59.2-9.5 77.7c6.7 52 22.6 71.5 6.6 92.9-17.5 23.3-62.6 23.9-91.3 16.5-36.9-9.4-17.3-122 38.2-75.4" stroke-width="12"/><path d="m303.7 1709s-77.2 26.1-69.4-36.7c7.4-59.3 40-57.3 69.4-34.6" stroke-width="12"/><path d="m247.9 1709.2s-69.4 23.9-61.6-38.8c7.4-59.3 40.7-53.9 59.6-41.3" stroke-width="12"/><path d="m233.8 1623s21.5-9 20.2-21.7-68.3-214.7-37.2-304" stroke-width="12"/><path d="m682 1131.7c-29 53.7 1 66.1 14 66.3 64 .9 61.8-70.7 76-80 21.3-14 110.7-10.7 94.7-78.7-17.7-75.2-72.6-92.3-72.6-92.3" stroke-width="12"/><path d="m669.8 1191.1s-12.5 6.9-27.8 6.9c-30 0-51-46.5-3-84.5" stroke-width="12"/><path d="m758 1017.3c-78.7-46.7-241.3 104-151.5 146.2" stroke-width="12"/><path d="m633 1511.8c-33 129.8-128 123.2-164 88.2 0 0-9 91.7-58.1 91" stroke-width="12"/><path d="m290.5 745.5h18.8c75 0 147.5-48.8 147.3-162.5 2.5-27.3-19.1-48.2-46.5-50.9-50.8-5.1-140.3-6.1-190.6 0-27.6 3.3-46.1 20.7-45.7 52 0 0 2.7 36 8.7 66.6 11.2 56.8 53.4 94.8 108 94.8z" stroke-width="10"/><path d="m285.8 765.9h22.4c109.6-6.2 170.8-63 170.5-191.4 3-32.6-17.9-58.8-50.4-62.9-54.8-7-169.7-3.1-227.2 0-33.1 1.8-54.9 24.6-54.4 62 0 0 3.2 42.9 10.4 79.4 13.3 67.6 63.5 112.9 128.7 112.9z" stroke-width="10"/><path d="m759.4 740.9h-18.8c-75 0-147.5-48.8-147.3-162.5-2.5-27.3 19.1-48.2 46.5-50.9 50.8-5.1 140.3-6.1 190.6 0 27.6 3.3 46.1 20.7 45.7 52 0 0-2.7 36-8.7 66.6-11.2 56.8-53.3 94.8-108 94.8z" stroke-width="10"/><path d="m764.2 761.4h-22.4c-109.6-6.2-170.8-63-170.5-191.4-3-32.6 17.9-58.8 50.4-62.9 54.8-7 169.7-3.1 227.2 0 33.1 1.8 54.9 24.6 54.4 62 0 0-3.2 42.9-10.4 79.4-13.3 67.6-63.6 112.9-128.7 112.9z" stroke-width="10"/><path d="m479 588.1s8.3-20.4 47.4-20.4c37.6 0 45.4 20.4 45.4 20.4" stroke-width="10"/><path d="m477 615.1s15.9-21.3 49.4-21.4c36.3-.1 46.4 21.4 46.4 21.4" stroke-width="10"/></g><path d="m1043.1 1232.4v314c0 30.6-24.8 55.5-55.5 55.5h-250.5c8.7 5.7 19.1 9 30.3 9h229.2c30.6 0 55.5-24.8 55.5-55.5v-292.8c0-11.1-3.3-21.5-9-30.2z" fill="#85869f"/><path d="m726.1 1592.8v-314c0-30.6 24.8-55.5 55.5-55.5h250.5c-8.7-5.7-19.1-9-30.3-9h-229.2c-30.6 0-55.5 24.8-55.5 55.5v292.8c0 11.1 3.3 21.5 9 30.2z" fill="#fff"/><path d="m1135.5 1350.5-153.1-226.2h-112.8l267.4 388.8c-.1-2-.6-158.9-1.5-162.6z" fill="url(#g)"/><path d="m1135.1 1574.5-304.6-450.2h-56.4l362.9 533.4c-.7-16.6-2.2-73-1.9-83.2z" fill="url(#h)"/><path d="m999.6 1613.8h-229.2c-30.6 0-55.5-24.8-55.5-55.5v-292.8c0-30.6 24.8-55.5 55.5-55.5h229.2c30.6 0 55.5 24.8 55.5 55.5v292.8c0 30.7-24.8 55.5-55.5 55.5z" style="fill:none;stroke:#000;stroke-width:10;stroke-linecap:round;stroke-linejoin:round;stroke-miterlimit:10"/><path d="m785 1113h298.6c29.5 0 53.4 23.9 53.4 53.4v491.4c0 29.5-23.9 53.4-53.4 53.4h-397.2c-29.5 0-53.4-23.9-53.4-53.4v-455.2" style="fill:none;stroke:#000;stroke-width:12;stroke-linecap:round;stroke-linejoin:round;stroke-miterlimit:10"/><path d="m864.4 1030.8h159.4c31.2 0 49.7 27.3 99.8 100.3" style="fill:none;stroke:#000;stroke-width:12;stroke-linecap:round;stroke-linejoin:round;stroke-miterlimit:10"/><circle cx="889" cy="1363" fill="#dfe0e0" r="86.3"/><path d="m886 1288.8c47.6 0 86.3 38.6 86.3 86.3 0 5.1-.5 10.1-1.3 14.9 2.8-8.5 4.3-17.5 4.3-26.9 0-47.6-38.6-86.3-86.3-86.3-42.5 0-77.9 30.8-84.9 71.3 11.3-34.5 43.7-59.3 81.9-59.3z" fill="#fff"/><path d="m892.2 1447.4c-51.2 0-92.7-41.5-92.7-92.7 0-10.6 1.8-20.9 5.1-30.4-10 14.8-15.9 32.7-15.9 51.9 0 51.2 41.5 92.7 92.7 92.7 40.5 0 75-26 87.6-62.3-16.7 24.6-44.8 40.8-76.8 40.8z" fill="#85869f"/><circle cx="889" cy="1363" r="86.3" style="fill:none;stroke:#000;stroke-width:10;stroke-linecap:round;stroke-linejoin:round;stroke-miterlimit:10"/><circle cx="889" cy="1363" fill="#85869f" r="34.5"/><path d="m885 1337.5c19.1 0 34.5 15.4 34.5 34.5 0 3.2-.5 6.4-1.3 9.4 3.3-5.3 5.3-11.6 5.3-18.4 0-19.1-15.4-34.5-34.5-34.5-15.8 0-29.1 10.6-33.2 25.1 6.1-9.7 16.9-16.1 29.2-16.1z" fill="#fff"/><path d="m908 1369.5c-2.4 9.8-16 13.9-20.7 12.1s8.3-2.3 12.2-15.3c2.1-6.9-.2-14 4.6-12.2 4.7 1.8 5.6 8.5 3.9 15.4z" fill="#fff"/><circle cx="889" cy="1363" r="34.5" style="fill:none;stroke:#000;stroke-width:10;stroke-linecap:round;stroke-linejoin:round;stroke-miterlimit:10"/><path d="m889 1316.8c-2.8 0-5-2.2-5-5v-18.8c0-2.8 2.2-5 5-5s5 2.2 5 5v18.8c0 2.7-2.2 5-5 5z"/><path d="m865.9 1322.9c-2.4 1.4-5.4.6-6.8-1.8l-9.4-16.2c-1.4-2.4-.6-5.4 1.8-6.8s5.4-.6 6.8 1.8l9.4 16.2c1.4 2.4.6 5.5-1.8 6.8z"/><path d="m848.9 1339.9c-1.4 2.4-4.4 3.2-6.8 1.8l-16.2-9.4c-2.4-1.4-3.2-4.4-1.8-6.8s4.4-3.2 6.8-1.8l16.2 9.4c2.4 1.3 3.2 4.4 1.8 6.8z"/><path d="m842.8 1363c0 2.8-2.2 5-5 5h-18.8c-2.8 0-5-2.2-5-5s2.2-5 5-5h18.8c2.7 0 5 2.2 5 5z"/><path d="m848.9 1386.1c1.4 2.4.6 5.4-1.8 6.8l-16.2 9.4c-2.4 1.4-5.4.6-6.8-1.8s-.6-5.4 1.8-6.8l16.2-9.4c2.4-1.4 5.5-.6 6.8 1.8z"/><path d="m865.9 1403.1c2.4 1.4 3.2 4.4 1.8 6.8l-9.4 16.2c-1.4 2.4-4.4 3.2-6.8 1.8s-3.2-4.4-1.8-6.8l9.4-16.2c1.3-2.4 4.4-3.2 6.8-1.8z"/><path d="m889 1409.3c2.8 0 5 2.2 5 5v18.8c0 2.8-2.2 5-5 5s-5-2.2-5-5v-18.8c0-2.8 2.2-5 5-5z"/><path d="m912.1 1403.1c2.4-1.4 5.4-.6 6.8 1.8l9.4 16.2c1.4 2.4.6 5.4-1.8 6.8s-5.4.6-6.8-1.8l-9.4-16.2c-1.4-2.4-.6-5.5 1.8-6.8z"/><path d="m929.1 1386.1c1.4-2.4 4.4-3.2 6.8-1.8l16.2 9.4c2.4 1.4 3.2 4.4 1.8 6.8s-4.4 3.2-6.8 1.8l-16.2-9.4c-2.4-1.3-3.2-4.4-1.8-6.8z"/><path d="m935.3 1363c0-2.8 2.2-5 5-5h18.7c2.8 0 5 2.2 5 5s-2.2 5-5 5h-18.8c-2.7 0-4.9-2.2-4.9-5z"/><path d="m929.1 1339.9c-1.4-2.4-.6-5.4 1.8-6.8l16.2-9.4c2.4-1.4 5.4-.6 6.8 1.8s.6 5.4-1.8 6.8l-16.2 9.4c-2.4 1.4-5.5.6-6.8-1.8z"/><path d="m912.1 1322.9c-2.4-1.4-3.2-4.4-1.8-6.8l9.4-16.2c1.4-2.4 4.4-3.2 6.8-1.8s3.2 4.4 1.8 6.8l-9.4 16.2c-1.3 2.4-4.4 3.2-6.8 1.8z"/><path d="m737.9 1332.8h-46c-7.9 0-14.2-6.4-14.2-14.2v-23.9c0-7.9 6.4-14.2 14.2-14.2h46c7.9 0 14.2 6.4 14.2 14.2v23.9c.1 7.8-6.3 14.2-14.2 14.2z" fill="#dfe0e0"/><path d="m681.9 1328.9s62.1 8 66.1 0 0-48.3 0-48.3-1 41.1-66.1 48.3z" fill="#85869f"/><path d="m690.5 1517.4c5.2-7.8 26-5.6 26-2.9 0 5.5-11.6 1.4-18.3 9.1-4.3 5.1-3 9-6.9 9.4-5.4.6-4.5-10.1-.8-15.6z" fill="#fff"/><path d="m737.9 1553.7h-46c-7.9 0-14.2-6.4-14.2-14.2v-23.9c0-7.9 6.4-14.2 14.2-14.2h46c7.9 0 14.2 6.4 14.2 14.2v23.9c.1 7.8-6.3 14.2-14.2 14.2z" fill="#dfe0e0"/><path d="m681.9 1549.5s62.1 8 66.1 0 0-48.3 0-48.3-1 41.1-66.1 48.3z" fill="#85869f"/><path d="m690.5 1297.9c5.2-7.8 26-5.6 26-2.9 0 5.5-11.6 1.4-18.3 9.1-4.3 5.1-3 9-6.9 9.4-5.4.6-4.5-10.1-.8-15.6z" fill="#fff"/><path d="m737.9 1332.8h-46c-7.9 0-14.2-6.4-14.2-14.2v-23.9c0-7.9 6.4-14.2 14.2-14.2h46c7.9 0 14.2 6.4 14.2 14.2v23.9c.1 7.8-6.3 14.2-14.2 14.2z" style="fill:none;stroke:#000;stroke-width:10;stroke-linecap:round;stroke-linejoin:round;stroke-miterlimit:10"/><path d="m737.9 1553.7h-46c-7.9 0-14.2-6.4-14.2-14.2v-23.9c0-7.9 6.4-14.2 14.2-14.2h46c7.9 0 14.2 6.4 14.2 14.2v23.9c.1 7.8-6.3 14.2-14.2 14.2z" style="fill:none;stroke:#000;stroke-width:10;stroke-linecap:round;stroke-linejoin:round;stroke-miterlimit:10"/><path d="m1012.9 1521.9c.3 12.2-4.6 24.5-14.4 33.2-10.2 9.2-23.6 12.6-36.2 10.4 17.5-17.1 27.1-40.9 19.8-49.1-7.8-8.7-31.1 2.4-51.7 20.9-.4.4-.8.7-1.2 1.1-6.3-16.3-2.3-35.5 11.5-47.8 7.4-6.6 16.5-10.2 25.7-10.9-12.7-.7-25.7 3.5-35.9 12.6-16.1 14.5-20.6 37.1-12.8 56-14.6 12.8-24 23.2-10.5 38.2 14.2 15.9 26.5 5.4 42.6-9.5 15.9 4.6 33.8 1.2 47.1-10.7 13-11.4 18.5-28.3 16-44.4z" fill="#85869f"/><circle cx="969.3" cy="1523.9" fill="#dfe0e0" r="44.3"/><path d="m1002.2 1494.4c-16.3-18.2-44.3-19.7-62.5-3.4s-19.7 44.3-3.4 62.5 44.3 19.7 62.5 3.4 19.7-44.3 3.4-62.5zm-6.8 62.8c-16.2 14.5-41 13.1-55.5-3s-13.1-41 3-55.5 41-13.1 55.5 3c14.6 16.2 13.2 41-3 55.5z" fill="#fff"/><path d="m928 1534.7c-4.4-15.4 0-32.7 12.8-44.1 7.4-6.6 16.5-10.2 25.7-10.9-12.7-.7-25.7 3.5-35.9 12.6-15.2 13.6-20.1 34.5-14 52.7 3.3-3.2 7.2-6.6 11.4-10.3z" fill="#85869f"/><path d="m1012.9 1521.9c.3 12.2-4.6 24.5-14.4 33.2-10.2 9.2-23.6 12.6-36.2 10.4 17.5-17.1 27.1-40.9 19.8-49.1 2.6 8.4-4 22.2-21.5 37.9-20.6 18.5-35.1 35.9-49.4 19.9-4.8-5.3-5.9-10.2-4.7-14.9-7 8.4-8.7 16.7.7 27.3 14.2 15.9 26.5 5.4 42.6-9.5 15.9 4.6 33.8 1.2 47.1-10.7 13-11.5 18.5-28.4 16-44.5z" fill="#85869f"/><circle cx="969.7" cy="1521.9" r="43.3" style="fill:none;stroke:#000;stroke-width:10;stroke-linecap:round;stroke-linejoin:round;stroke-miterlimit:10"/><path d="m960.6 1554.4c-20.6 18.5-35.1 35.9-49.4 19.9-14.7-16.4 4.6-28.5 25.2-47s36.9-22.2 43.6-14.7 1.3 23.3-19.4 41.8z" fill="#dfe0e0"/><path d="m939.4 1536.4c20.3-18.2 36.4-22.1 43.2-15.1.2-3.5-.7-6.5-2.7-8.7-6.7-7.5-23-3.7-43.6 14.7-19.5 17.4-37.7 29.2-27.4 44.2.4-11.1 15.1-21.3 30.5-35.1z" fill="#fff"/><path d="m960.6 1554.4c-20.6 18.5-35.1 35.9-49.4 19.9-14.7-16.4 4.6-28.5 25.2-47s36.9-22.2 43.6-14.7 1.3 23.3-19.4 41.8z" style="fill:none;stroke:#000;stroke-width:10;stroke-linecap:round;stroke-linejoin:round;stroke-miterlimit:10"/><path d="m940.1 1552.6c1.8 2-3.4 9.5-7.2 12.8s-7.6 5.3-10.1 2.4c-2.7-3.1.8-5.3 4.6-8.6s11-8.6 12.7-6.6z" fill="#fff"/></svg>